<?xml version="1.0" encoding="UTF-8" standalone="no"?>
<!-- Created with Inkscape (http://www.inkscape.org/) -->

<svg
   xmlns:dc="http://purl.org/dc/elements/1.1/"
   xmlns:cc="http://creativecommons.org/ns#"
   xmlns:rdf="http://www.w3.org/1999/02/22-rdf-syntax-ns#"
   xmlns:svg="http://www.w3.org/2000/svg"
   xmlns="http://www.w3.org/2000/svg"
   xmlns:sodipodi="http://sodipodi.sourceforge.net/DTD/sodipodi-0.dtd"
   xmlns:inkscape="http://www.inkscape.org/namespaces/inkscape"
   width="60"
   height="50"
   viewBox="0 0 15.875001 13.229167"
   version="1.1"
   id="svg8"
   inkscape:version="0.92.4 (f8dce91, 2019-08-02)"
   sodipodi:docname="placeholder-logo.svg">
  <defs
     id="defs2">
    <inkscape:perspective
       sodipodi:type="inkscape:persp3d"
       inkscape:vp_x="0 : 6.6145835 : 1"
       inkscape:vp_y="0 : 1000 : 0"
       inkscape:vp_z="15.875001 : 6.6145835 : 1"
       inkscape:persp3d-origin="7.9375005 : 4.4097223 : 1"
       id="perspective845" />
  </defs>
  <sodipodi:namedview
     id="base"
     pagecolor="#ffffff"
     bordercolor="#666666"
     borderopacity="1.0"
     inkscape:pageopacity="0.0"
     inkscape:pageshadow="2"
     inkscape:zoom="11.2"
     inkscape:cx="11.4065"
     inkscape:cy="20.645472"
     inkscape:document-units="mm"
     inkscape:current-layer="layer1"
     showgrid="false"
     units="px"
     inkscape:window-width="1855"
     inkscape:window-height="1056"
     inkscape:window-x="65"
     inkscape:window-y="24"
     inkscape:window-maximized="1" />
  <metadata
     id="metadata5">
    <rdf:RDF>
      <cc:Work
         rdf:about="">
        <dc:format>image/svg+xml</dc:format>
        <dc:type
           rdf:resource="http://purl.org/dc/dcmitype/StillImage" />
        <dc:title></dc:title>
      </cc:Work>
    </rdf:RDF>
  </metadata>
  <g
     inkscape:label="Layer 1"
     inkscape:groupmode="layer"
     id="layer1"
     transform="translate(0,-283.77083)">
    <path
       style="opacity:1;fill:#000000;fill-opacity:1;fill-rule:nonzero;stroke:#000000;stroke-width:0.28346458;stroke-miterlimit:4;stroke-dasharray:none;stroke-opacity:1"
       d="M 0.1953125 0.11914062 L 0.1953125 49.880859 L 59.804688 49.880859 L 59.804688 0.11914062 L 0.1953125 0.11914062 z M 29.474609 18.210938 C 30.465876 18.210938 31.323852 18.355713 32.050781 18.646484 C 32.790927 18.924039 33.472556 19.354004 34.09375 19.935547 L 32.705078 21.541016 C 32.216053 21.144509 31.727306 20.853005 31.238281 20.667969 C 30.749256 20.482932 30.226984 20.390625 29.671875 20.390625 C 29.063898 20.390625 28.575151 20.522772 28.205078 20.787109 C 27.848222 21.03823 27.669922 21.401145 27.669922 21.876953 C 27.669922 22.207375 27.743286 22.479936 27.888672 22.691406 C 28.047275 22.902876 28.317882 23.10012 28.701172 23.285156 C 29.084462 23.470193 29.659202 23.682018 30.425781 23.919922 C 31.787121 24.356079 32.804454 24.897294 33.478516 25.544922 C 34.152577 26.179333 34.490234 27.09173 34.490234 28.28125 C 34.490234 29.127131 34.278409 29.873857 33.855469 30.521484 C 33.432528 31.155895 32.817949 31.657271 32.011719 32.027344 C 31.205489 32.3842 30.259566 32.564453 29.175781 32.564453 C 28.091996 32.564453 27.127131 32.392467 26.28125 32.048828 C 25.435369 31.705189 24.709539 31.235385 24.101562 30.640625 L 25.587891 28.994141 C 26.116566 29.443515 26.666049 29.787487 27.234375 30.025391 C 27.802701 30.250078 28.423595 30.363281 29.097656 30.363281 C 29.811368 30.363281 30.379794 30.19761 30.802734 29.867188 C 31.238892 29.536765 31.457031 29.075229 31.457031 28.480469 C 31.457031 28.110396 31.377353 27.806263 31.21875 27.568359 C 31.073364 27.317238 30.815385 27.090831 30.445312 26.892578 C 30.07524 26.694325 29.540339 26.490767 28.839844 26.279297 C 27.346335 25.816706 26.276534 25.260909 25.628906 24.613281 C 24.994496 23.965654 24.675781 23.120306 24.675781 22.076172 C 24.675781 21.309592 24.881292 20.636231 25.291016 20.054688 C 25.700739 19.459927 26.269165 19.002752 26.996094 18.685547 C 27.723023 18.368342 28.549427 18.210938 29.474609 18.210938 z M 12.396484 18.527344 L 15.984375 18.527344 C 18.125511 18.527344 19.837102 19.016091 21.119141 19.994141 C 22.414396 20.958974 23.0625 22.737615 23.0625 25.328125 C 23.0625 27.865768 22.428978 29.655085 21.160156 30.699219 C 19.904552 31.730136 18.291582 32.246094 16.322266 32.246094 L 12.396484 32.246094 L 12.396484 18.527344 z M 36.705078 18.527344 L 40.412109 18.527344 L 42.671875 27.984375 L 44.792969 18.527344 L 48.539062 18.527344 L 49.589844 32.246094 L 46.736328 32.246094 L 46.4375 26.675781 C 46.344982 25.010453 46.298828 23.59668 46.298828 22.433594 C 46.298828 21.8124 46.307096 21.361539 46.320312 21.083984 L 44 30.779297 L 41.244141 30.779297 L 38.765625 21.064453 C 38.818493 21.870683 38.845703 22.776766 38.845703 23.78125 C 38.845703 24.851818 38.818493 25.835627 38.765625 26.734375 L 38.46875 32.246094 L 35.632812 32.246094 L 36.705078 18.527344 z M 15.310547 20.667969 L 15.310547 30.105469 L 16.5 30.105469 C 17.623436 30.105469 18.489679 29.761497 19.097656 29.074219 C 19.71885 28.373724 20.029297 27.125622 20.029297 25.328125 C 20.029297 24.085737 19.86994 23.120872 19.552734 22.433594 C 19.248746 21.746316 18.839677 21.282826 18.324219 21.044922 C 17.80876 20.793801 17.181552 20.667969 16.441406 20.667969 L 15.310547 20.667969 z "
       id="rect839"
       transform="matrix(0.26458333,0,0,0.26458333,0,283.77083)" />
  </g>
</svg>
